<svg xmlns="http://www.w3.org/2000/svg" xmlns:xlink="http://www.w3.org/1999/xlink" fill="none" version="1.1" width="24" height="24" viewBox="0 0 24 24"><path d="M14.840326795532226,4.0000152587890625L19.00002379553223,8.128437058789062L19.00002379553223,11.000015258789062L19.400024795532225,11.000015258789062C19.731395795532226,11.000015258789062,20.000024795532227,11.268644358789063,20.000024795532227,11.600015158789063L20.000024795532227,17.40001525878906C20.000024795532227,17.731386258789062,19.731395795532226,18.000015258789062,19.400024795532225,18.000015258789062L19.00002379553223,18.000015258789062L19.00002379553223,20.000015258789062L5.000024795532227,20.000015258789062L5.000024795532227,18.000015258789062L4.600024815532226,18.000015258789062C4.2686539255322264,18.000015258789062,4.000024795532227,17.731386258789062,4.000024795532227,17.40001525878906L4.000024795532227,11.600015158789063C4.000024795532227,11.268644358789063,4.2686539255322264,11.000015258789062,4.600024815532226,11.000015258789062L5.000024795532227,11.000015258789062L5.000024795532227,4.0000152587890625L14.840326795532226,4.0000152587890625ZM17.727296795532226,9.473699558789063L17.727296795532226,11.000015258789062L6.272752795532226,11.000015258789062L6.272752795532226,5.262752558789062L13.484873795532227,5.262752558789062L13.484873795532227,9.473699558789063L17.727296795532226,9.473699558789063ZM17.283115795532225,8.210540758789062L14.757600795532227,5.704015758789063L14.757600795532227,8.210541758789063L17.283115795532225,8.210540758789062ZM11.776024295532228,8.210540758789062L11.776024295532228,9.473698658789061L8.181842795532226,9.473698658789061L8.181842795532226,8.210540758789062L11.776024295532228,8.210540758789062ZM8.705024695532227,12.685015658789062Q8.305025095532226,12.360015858789062,7.675024995532226,12.360015858789062Q6.8200249955322265,12.360015858789062,6.375024795532227,12.925015458789062Q5.9750248955322265,13.420015358789062,5.9750248955322265,14.220015258789063Q5.9750248955322265,15.035015258789063,6.360024895532227,15.510015258789062Q6.805024895532227,16.070015258789063,7.680024895532227,16.070015258789063Q8.260024995532227,16.070015258789063,8.670024895532226,15.740015258789063Q9.110024895532227,15.390014258789062,9.230024795532227,14.765014258789062L8.700024595532227,14.765014258789062Q8.595025095532225,15.185014258789062,8.325024595532227,15.395015258789062Q8.070024495532227,15.590015258789062,7.675024995532226,15.590015258789062Q7.075024795532227,15.590015258789062,6.790024795532227,15.215015258789062Q6.520024795532226,14.860016258789063,6.520024795532226,14.220015258789063Q6.520024795532226,13.590015458789063,6.795024895532227,13.235015858789062Q7.0850247955322265,12.840015458789063,7.665024795532227,12.840015458789063Q8.055025095532226,12.840015458789063,8.305025095532226,13.010015458789063Q8.560024695532228,13.180015558789062,8.650024895532226,13.545015358789062L9.180025095532226,13.545015358789062Q9.095025095532225,13.000015258789062,8.705024695532227,12.685015658789062ZM15.105024795532227,12.360015858789062L14.575024795532226,12.360015858789062L14.575024795532226,13.800015458789062Q14.260024795532226,13.345015558789063,13.785024595532226,13.345015558789063Q13.225025195532227,13.345015558789063,12.910024595532226,13.750015258789062Q12.615024595532226,14.120015258789062,12.615024595532226,14.695015258789063Q12.615024595532226,15.290015258789062,12.915024795532226,15.665015258789062Q13.240024595532226,16.070015258789063,13.810024295532227,16.070015258789063Q14.335024795532227,16.070015258789063,14.610024795532226,15.690016258789063L14.610024795532226,16.000015258789062L15.105024795532227,16.000015258789062L15.105024795532227,12.360015858789062ZM11.860024495532226,13.735015858789062Q11.510024995532227,13.345015558789063,10.920024895532226,13.345015558789063Q10.335024795532227,13.345015558789063,9.980024795532227,13.735015858789062Q9.630024895532227,14.115015258789063,9.630024895532227,14.710015258789063Q9.630024895532227,15.300015258789063,9.975024695532227,15.675015258789063Q10.340024995532227,16.070015258789063,10.920024895532226,16.070015258789063Q11.500024795532227,16.070015258789063,11.865024595532226,15.675015258789063Q12.210024795532227,15.300015258789063,12.210024795532227,14.710015258789063Q12.210024795532227,14.125015258789062,11.860024495532226,13.735015858789062ZM17.765024795532227,13.775014858789062Q17.44002579553223,13.345015558789063,16.80002579553223,13.345015558789063Q16.225024795532228,13.345015558789063,15.895024795532226,13.740015058789062Q15.555024795532226,14.125015258789062,15.555024795532226,14.705015258789063Q15.555024795532226,15.340015258789062,15.915025795532227,15.715015258789062Q16.24502579553223,16.070015258789063,16.820025795532224,16.070015258789063Q17.335025795532225,16.070015258789063,17.67502579553223,15.775015258789063Q17.93502479553223,15.540015258789062,18.030025795532225,15.170015258789062L17.500025795532224,15.170015258789062Q17.390024795532227,15.410015258789063,17.265024795532227,15.505015258789063Q17.090024795532226,15.635015258789062,16.81502579553223,15.635015258789062Q16.505025795532227,15.635015258789062,16.320025795532224,15.435014258789062Q16.145024795532226,15.240015258789063,16.115025795532226,14.855015258789063L18.075025795532227,14.855015258789063Q18.070025795532224,14.170015258789062,17.765024795532227,13.775014858789062ZM13.325024595532227,14.040015258789062Q13.510024995532227,13.775014858789062,13.905024495532226,13.775014858789062Q14.200024795532226,13.775014858789062,14.390023795532226,14.010015258789062Q14.590024795532226,14.270015258789062,14.590024795532226,14.685014258789062L14.590024795532226,14.730015258789063Q14.590024795532226,15.115015258789063,14.425024795532227,15.365015258789063Q14.225024795532226,15.640015258789063,13.890025095532227,15.640015258789063Q13.495024695532226,15.640015258789063,13.315025295532227,15.360016258789063Q13.160024595532226,15.125015258789062,13.160024595532226,14.695015258789063Q13.160024595532226,14.265014258789062,13.325024595532227,14.040015258789062ZM10.350024695532227,14.070015258789063Q10.550024995532226,13.780014958789062,10.920024895532226,13.780014958789062Q11.285024595532226,13.780014958789062,11.495024695532226,14.070015258789063Q11.675024995532226,14.315016258789063,11.675024995532226,14.710015258789063Q11.675024995532226,15.090015258789062,11.495024695532226,15.345015258789063Q11.280024495532228,15.635015258789062,10.920024895532226,15.635015258789062Q10.555025095532226,15.635015258789062,10.350024695532227,15.345015258789063Q10.175024995532226,15.105015258789063,10.175024995532226,14.710015258789063Q10.175024995532226,14.310014258789062,10.350024695532227,14.070015258789063ZM16.340025795532227,13.955015158789063Q16.515024795532227,13.780014958789062,16.81502579553223,13.780014958789062Q17.445025795532224,13.780014958789062,17.520024795532226,14.455015258789063L16.125025795532224,14.455015258789063Q16.170025795532226,14.135015258789062,16.340025795532227,13.955015158789063ZM6.272752795532226,18.736857258789062L6.272752795532226,18.000015258789062L17.727296795532226,18.000015258789062L17.727296795532226,18.736857258789062L6.272752795532226,18.736857258789062Z" fill-rule="evenodd" fill="#FAAD14" fill-opacity="1"/></svg>