<svg xmlns="http://www.w3.org/2000/svg" xmlns:xlink="http://www.w3.org/1999/xlink" fill="none" version="1.1" width="24" height="24" viewBox="0 0 24 24"><path d="M14.840302,4L18.999999000000003,8.1284218L18.999999000000003,11L19.4,11C19.731371,11,20,11.2686291,20,11.5999999L20,17.4C20,17.731371,19.731371,18,19.4,18L18.999999000000003,18L18.999999000000003,20L5,20L5,18L4.6000000199999995,18C4.26862913,18,4,17.731371,4,17.4L4,11.5999999C4,11.2686291,4.26862913,11,4.6000000199999995,11L5,11L5,4L14.840302,4ZM17.727272,9.4736843L17.727272,11L6.272728,11L6.272728,5.2627372999999995L13.484849,5.2627372999999995L13.484849,9.4736843L17.727272,9.4736843ZM17.283091,8.2105255L14.757576,5.7040005L14.757576,8.2105265L17.283091,8.2105255ZM11.775999500000001,8.2105255L11.775999500000001,9.473683399999999L8.181818,9.473683399999999L8.181818,8.2105255L11.775999500000001,8.2105255ZM17.997500000000002,12.3600006L17.4675,12.3600006L17.4675,16L17.997500000000002,16L17.997500000000002,12.3600006ZM8.5575004,12.4300003L5.9925004,12.4300003L5.9925004,16L8.6425004,16L8.6425004,15.535L6.5375004,15.535L6.5375004,14.4L8.4375,14.4L8.4375,13.9349995L6.5375004,13.9349995L6.5375004,12.8950005L8.5575004,12.8950005L8.5575004,12.4300003ZM13.7425003,13.5699997Q13.4425001,13.3450003,12.9475002,13.3450003Q12.3525,13.3450003,12.0124998,13.75Q11.6974998,14.125,11.6974998,14.71Q11.6974998,15.309999,12.0174999,15.68Q12.3474998,16.07,12.9375,16.07Q13.4324999,16.07,13.7375002,15.82Q14.0425,15.559999,14.1325,15.045L13.6075001,15.045Q13.5324993,15.635,12.9425001,15.635Q12.6025,15.635,12.4274998,15.389999Q12.2425003,15.145,12.2425003,14.705Q12.2425003,14.26,12.4324999,14.025Q12.6175003,13.7799997,12.9475002,13.7799997Q13.2224998,13.7799997,13.3824997,13.9049997Q13.5424995,14.02,13.5974998,14.29L14.122499,14.29Q14.0475,13.8150005,13.7425003,13.5699997ZM16.6475,13.7749996Q16.322499999999998,13.3450003,15.682501,13.3450003Q15.1075,13.3450003,14.7775,13.7399998Q14.4375,14.125,14.4375,14.705Q14.4375,15.34,14.797501,15.715Q15.127501,16.07,15.7025,16.07Q16.217501,16.07,16.557501000000002,15.775Q16.817500000000003,15.54,16.9125,15.17L16.382500999999998,15.17Q16.2725,15.41,16.1475,15.505Q15.9725,15.635,15.6975,15.635Q15.387501,15.635,15.2025,15.434999Q15.0275,15.24,14.9975,14.855L16.9575,14.855Q16.9525,14.17,16.6475,13.7749996ZM9.6075001,13.415L8.9875002,13.415L9.882500199999999,14.625L8.8725004,16L9.4975004,16L10.1775002,15.015L10.8525,16L11.4725003,16L10.4675002,14.625L11.3625002,13.415L10.7425003,13.415L10.1775002,14.235001L9.6075001,13.415ZM15.222501,13.9549999Q15.3975,13.7799997,15.6975,13.7799997Q16.3275,13.7799997,16.4025,14.455L15.007501,14.455Q15.052501,14.135,15.222501,13.9549999ZM6.272728,18.736842L6.272728,18L17.727272,18L17.727272,18.736842L6.272728,18.736842Z" fill-rule="evenodd" fill="#52C41A" fill-opacity="1"/></svg>