<svg xmlns="http://www.w3.org/2000/svg" xmlns:xlink="http://www.w3.org/1999/xlink" fill="none" version="1.1" width="24" height="24" viewBox="0 0 24 24"><path d="M14.840302,4L18.999999000000003,8.1284218L18.999999000000003,11L19.4,11C19.731371,11,20,11.2686291,20,11.5999999L20,17.4C20,17.731371,19.731371,18,19.4,18L18.999999000000003,18L18.999999000000003,20L5,20L5,18L4.6000000199999995,18C4.26862913,18,4,17.731371,4,17.4L4,11.5999999C4,11.2686291,4.26862913,11,4.6000000199999995,11L5,11L5,4L14.840302,4ZM17.727272,9.4736843L17.727272,11L6.272728,11L6.272728,5.2627372999999995L13.484849,5.2627372999999995L13.484849,9.4736843L17.727272,9.4736843ZM17.283091,8.2105255L14.757576,5.7040005L14.757576,8.2105265L17.283091,8.2105255ZM11.775999500000001,8.2105255L11.775999500000001,9.473683399999999L8.181818,9.473683399999999L8.181818,8.2105255L11.775999500000001,8.2105255ZM8.9575,12.4300003L8.3125,12.4300003L8.3125,16L8.8575001,16L8.8575001,13.4499998L8.877500099999999,13.4499998L9.9724998,16L10.4425001,16L11.5374999,13.4499998L11.5574999,13.4499998L11.5574999,16L12.1025,16L12.1025,12.4300003L11.4575,12.4300003L10.217499700000001,15.29L10.2025003,15.29L8.9575,12.4300003ZM14.1025,12.4300003L12.8024998,12.4300003L12.8024998,16L14.0925,16Q14.952499,16,15.4025,15.52Q15.8325,15.05,15.8325,14.215Q15.8325,13.3649998,15.4125,12.915Q14.9625,12.4300003,14.1025,12.4300003ZM13.3474998,15.535L13.3474998,12.8950005L14.0025,12.8950005Q14.6775,12.8950005,14.9925,13.2150002Q15.2975,13.5349998,15.2975,14.215Q15.2975,14.885,14.987499,15.21Q14.6725,15.535,13.9925003,15.535L13.3474998,15.535ZM6.272728,18.736842L6.272728,18L17.727272,18L17.727272,18.736842L6.272728,18.736842Z" fill-rule="evenodd" fill="#A614FA" fill-opacity="1"/></svg>