<svg xmlns="http://www.w3.org/2000/svg" xmlns:xlink="http://www.w3.org/1999/xlink" fill="none" version="1.1" width="24" height="24" viewBox="0 0 24 24"><path d="M14.840302,4L18.999999000000003,8.1284218L18.999999000000003,11L19.4,11C19.731371,11,20,11.2686291,20,11.5999999L20,17.4C20,17.731371,19.731371,18,19.4,18L18.999999000000003,18L18.999999000000003,20L5,20L5,18L4.6000000199999995,18C4.26862913,18,4,17.731371,4,17.4L4,11.5999999C4,11.2686291,4.26862913,11,4.6000000199999995,11L5,11L5,4L14.840302,4ZM17.727272,9.4736843L17.727272,11L6.272728,11L6.272728,5.2627372999999995L13.484849,5.2627372999999995L13.484849,9.4736843L17.727272,9.4736843ZM17.283091,8.2105255L14.757576,5.7040005L14.757576,8.2105265L17.283091,8.2105255ZM11.775999500000001,8.2105255L11.775999500000001,9.473683399999999L8.181818,9.473683399999999L8.181818,8.2105255L11.775999500000001,8.2105255ZM8.9549999,12.4300003L7.4749999,12.4300003L7.4749999,16L8.02,16L8.02,14.610001L8.9449997,14.610001Q10.23,14.610001,10.23,13.5150003Q10.23,12.4300003,8.9549999,12.4300003ZM12.0349998,12.4300003L10.7349997,12.4300003L10.7349997,16L12.0249996,16Q12.8850002,16,13.335,15.52Q13.7649994,15.05,13.7649994,14.215Q13.7649994,13.3649998,13.3450003,12.915Q12.8950005,12.4300003,12.0349998,12.4300003ZM16.744999999999997,12.4300003L14.32,12.4300003L14.32,16L14.865,16L14.865,14.4L16.64,14.4L16.64,13.9349995L14.865,13.9349995L14.865,12.8950005L16.744999999999997,12.8950005L16.744999999999997,12.4300003ZM8.02,14.145L8.02,12.8950005L8.9099998,12.8950005Q9.309999900000001,12.8950005,9.4949999,13.0450001Q9.684999900000001,13.1800003,9.684999900000001,13.5150003Q9.684999900000001,13.8400002,9.5,13.9949999Q9.315000099999999,14.145,8.9099998,14.145L8.02,14.145ZM11.279999700000001,15.535L11.279999700000001,12.8950005L11.934999900000001,12.8950005Q12.6099997,12.8950005,12.9250002,13.2150002Q13.2299995,13.5349998,13.2299995,14.215Q13.2299995,14.885,12.9200001,15.21Q12.6049995,15.535,11.9250002,15.535L11.279999700000001,15.535ZM6.272728,18.736842L6.272728,18L17.727272,18L17.727272,18.736842L6.272728,18.736842Z" fill-rule="evenodd" fill="#FF4D4F" fill-opacity="1"/></svg>