<svg xmlns="http://www.w3.org/2000/svg" xmlns:xlink="http://www.w3.org/1999/xlink" fill="none" version="1.1" width="24" height="24" viewBox="0 0 24 24"><path d="M14.840302,4L18.999999000000003,8.1284218L18.999999000000003,11L19.4,11C19.731371,11,20,11.2686291,20,11.5999999L20,17.4C20,17.731371,19.731371,18,19.4,18L18.999999000000003,18L18.999999000000003,20L5,20L5,18L4.6000000199999995,18C4.26862913,18,4,17.731371,4,17.4L4,11.5999999C4,11.2686291,4.26862913,11,4.6000000199999995,11L5,11L5,4L14.840302,4ZM17.727272,9.4736843L17.727272,11L6.272728,11L6.272728,5.2627372999999995L13.484849,5.2627372999999995L13.484849,9.4736843L17.727272,9.4736843ZM17.283091,8.2105255L14.757576,5.7040005L14.757576,8.2105265L17.283091,8.2105255ZM11.775999500000001,8.2105255L11.775999500000001,9.473683399999999L8.181818,9.473683399999999L8.181818,8.2105255L11.775999500000001,8.2105255ZM10.2750001,12.4300003L7.3500001,12.4300003L7.3500001,12.8950005L8.5450001,12.8950005L8.5450001,16L9.085,16L9.085,12.8950005L10.2750001,12.8950005L10.2750001,12.4300003ZM11.1300001,12.4300003L10.4650002,12.4300003L11.665,14.155001L10.3800001,16L11.0450001,16L12,14.585L12.9549999,16L13.6199999,16L12.3249998,14.155001L13.5349998,12.4300003L12.8699999,12.4300003L12,13.7200003L11.1300001,12.4300003ZM16.645,12.4300003L13.7199993,12.4300003L13.7199993,12.8950005L14.915,12.8950005L14.915,16L15.455,16L15.455,12.8950005L16.645,12.8950005L16.645,12.4300003ZM6.272728,18.736842L6.272728,18L17.727272,18L17.727272,18.736842L6.272728,18.736842Z" fill-rule="evenodd" fill="#A6A6A6" fill-opacity="1"/></svg>