<svg xmlns="http://www.w3.org/2000/svg" xmlns:xlink="http://www.w3.org/1999/xlink" fill="none" version="1.1" width="24" height="24" viewBox="0 0 24 24"><path d="M14.840302,4L18.999999000000003,8.1284218L18.999999000000003,11L19.4,11C19.731371,11,20,11.2686291,20,11.5999999L20,17.4C20,17.731371,19.731371,18,19.4,18L18.999999000000003,18L18.999999000000003,20L5,20L5,18L4.6000000199999995,18C4.26862913,18,4,17.731371,4,17.4L4,11.5999999C4,11.2686291,4.26862913,11,4.6000000199999995,11L5,11L5,4L14.840302,4ZM17.727272,9.4736843L17.727272,11L6.272728,11L6.272728,5.2627372999999995L13.484849,5.2627372999999995L13.484849,9.4736843L17.727272,9.4736843ZM17.283091,8.2105255L14.757576,5.7040005L14.757576,8.2105265L17.283091,8.2105255ZM11.775999500000001,8.2105255L11.775999500000001,9.473683399999999L8.181818,9.473683399999999L8.181818,8.2105255L11.775999500000001,8.2105255ZM17.987499,12.3600006L17.4575,12.3600006L17.4575,13.8000002Q17.1425,13.3450003,16.6675,13.3450003Q16.1075,13.3450003,15.7925,13.75Q15.497499,14.12,15.497499,14.695Q15.497499,15.29,15.7975,15.665Q16.122498999999998,16.07,16.692498999999998,16.07Q17.2175,16.07,17.492499000000002,15.690001L17.492499000000002,16L17.987499,16L17.987499,12.3600006ZM6.3525004,12.4300003L5.7375004999999994,12.4300003L6.7625005,16L7.3475006,16L8.0725002,13.2449999L8.0925007,13.2449999L8.817500599999999,16L9.3975005,16L10.4275002,12.4300003L9.812500499999999,12.4300003L9.1175003,15.21L9.097500799999999,15.21L8.3675003,12.4300003L7.797500599999999,12.4300003L7.0675006,15.21L7.047500599999999,15.21L6.3525004,12.4300003ZM12.8824997,13.7350006Q12.5325003,13.3450003,11.9425001,13.3450003Q11.3575001,13.3450003,11.0025005,13.7350006Q10.6525002,14.115,10.6525002,14.71Q10.6525002,15.3,10.9975004,15.675Q11.3625002,16.07,11.9425001,16.07Q12.5225,16.07,12.8875008,15.675Q13.2325001,15.3,13.2325001,14.71Q13.2325001,14.125,12.8824997,13.7350006ZM15.2725,13.4099998Q15.1425,13.3450003,14.9375,13.3450003Q14.6925,13.3450003,14.5175,13.4899998Q14.3625,13.6000004,14.2675,13.8050003L14.2675,13.415L13.7375002,13.415L13.7375002,16L14.2675,16L14.2675,14.63Q14.2675,14.285,14.4675,14.08Q14.6575,13.8850002,14.8975,13.8850002Q15.0925,13.8850002,15.2725,13.9400005L15.2725,13.4099998ZM16.2075,14.04Q16.3925,13.7749996,16.787499,13.7749996Q17.0825,13.7749996,17.272499,14.01Q17.4725,14.27,17.4725,14.684999L17.4725,14.73Q17.4725,15.115,17.307499999999997,15.365Q17.1075,15.64,16.7725,15.64Q16.377499999999998,15.64,16.197499,15.360001Q16.0425,15.125,16.0425,14.695Q16.0425,14.264999,16.2075,14.04ZM11.3725004,14.07Q11.5725002,13.7799997,11.9425001,13.7799997Q12.3075008,13.7799997,12.5174999,14.07Q12.6975002,14.315001,12.6975002,14.71Q12.6975002,15.09,12.5174999,15.345Q12.3024998,15.635,11.9425001,15.635Q11.5775003,15.635,11.3725004,15.345Q11.1975002,15.105,11.1975002,14.71Q11.1975002,14.309999,11.3725004,14.07ZM6.272728,18.736842L6.272728,18L17.727272,18L17.727272,18.736842L6.272728,18.736842Z" fill-rule="evenodd" fill="#1890FF" fill-opacity="1"/></svg>